<svg width="1920" height="1806" viewBox="0 0 1920 1806" fill="none" xmlns="http://www.w3.org/2000/svg">
<g opacity="0.4">
<path d="M-456.823 1016.87C-473.712 999.956 -489.733 983.095 -504.794 966.37C-587.501 874.533 -639.06 790.094 -658.036 715.4C-677.452 638.979 -661.923 574.593 -611.877 524.032C-459.936 370.523 -348.498 292.693 -274.759 241.19C-241.568 218.01 -215.354 199.701 -197.416 182.626C-167.574 154.218 -98.2956 146.207 -16.6176 161.721C71.2807 178.415 154.091 218.164 210.581 270.775C288.497 343.341 386.734 395.901 455.424 427.216C535.439 463.692 622.895 492.718 689.369 504.861C732.282 512.699 764.367 543.643 782.155 594.351C812.955 682.153 797.008 817.702 740.537 948.1C713.77 1009.91 686.092 1073.82 656.762 1132.88C624.334 1198.17 593.303 1250.3 561.896 1292.25C524.393 1342.34 485.392 1379.63 442.663 1406.25C394.954 1435.97 343.684 1451.85 285.922 1454.78C187.267 1459.79 -25.5175 1358.27 -231.53 1207.9C-315.801 1146.39 -392.589 1081.22 -456.823 1016.87ZM745.426 537.703C729.808 522.058 710.872 512.018 689.087 508.039C622.478 495.872 534.865 466.796 454.721 430.261C385.891 398.883 287.441 346.204 209.305 273.432C153.099 221.087 70.6467 181.527 -16.9119 164.898C-98.0457 149.488 -166.706 157.296 -196.098 185.275C-214.163 202.471 -240.439 220.823 -273.706 244.057C-347.379 295.513 -458.716 373.274 -610.506 526.629C-659.638 576.266 -674.896 639.427 -655.859 714.357C-637.029 788.472 -585.721 872.422 -503.36 963.875C-431.134 1044.08 -336.768 1127.48 -230.467 1205.07C-24.7789 1355.2 187.526 1456.57 285.819 1451.58C343.279 1448.66 394.269 1432.87 441.702 1403.33C484.186 1376.86 522.975 1339.77 560.287 1289.93C630.285 1196.43 685.326 1069.34 738.554 946.431C794.629 816.948 810.542 682.57 780.08 595.734C771.671 571.761 759.992 552.294 745.426 537.703Z" fill="url(#paint0_linear_155_9)"/>
<path d="M-423.781 983.686C-437.138 970.307 -449.883 956.971 -461.967 943.723C-538.18 860.168 -585.791 783.322 -603.472 715.315C-621.35 646.56 -607.844 588.538 -563.331 542.86C-429.624 403.509 -325.444 326.515 -256.507 275.568C-224.145 251.65 -198.583 232.76 -180.524 215.365C-151.323 187.275 -86.1453 178.018 -10.424 191.205C70.6549 205.327 148.079 241.577 201.996 290.659C274.112 357.123 364.261 406.157 427.189 435.589C501.114 470.166 578.937 497.346 640.703 510.159C679.677 518.255 708.785 547.323 724.881 594.218C752.82 675.626 738.117 800.317 686.509 919.633L686.51 919.631C637.897 1032.27 587.629 1148.75 521.973 1236.22C487.39 1282.29 451.424 1316.66 412.021 1341.28C368.065 1368.74 320.866 1383.55 267.73 1386.55C176.521 1392.11 -19.9872 1300.38 -210.138 1163.46C-290.371 1105.7 -363.311 1044.26 -423.781 983.686ZM690.224 540.208C676.312 526.271 659.576 517.119 640.399 513.135C578.512 500.297 500.553 473.072 426.511 438.441C363.459 408.95 273.12 359.807 200.811 293.166C147.169 244.335 70.0825 208.257 -10.6761 194.191C-85.8898 181.091 -150.494 190.153 -179.276 217.842C-197.439 235.335 -223.05 254.263 -255.473 278.226C-324.353 329.132 -428.443 406.059 -562.025 545.279C-605.689 590.086 -618.945 646.954 -601.432 714.314C-583.891 781.778 -536.518 858.17 -460.629 941.367C-393.944 1014.48 -306.983 1090.35 -209.153 1160.79C-19.3073 1297.49 176.748 1389.08 267.619 1383.54C320.478 1380.56 367.415 1365.83 411.115 1338.53C450.291 1314.05 486.059 1279.87 520.462 1234.04C585.911 1146.84 636.104 1030.54 684.644 918.068V918.067C735.884 799.602 750.551 675.998 722.921 595.493C715.065 572.606 704.038 554.046 690.224 540.208Z" fill="url(#paint1_linear_155_9)"/>
<path d="M-390.676 950.696C-400.569 940.786 -410.071 930.915 -419.177 921.085C-488.9 845.812 -532.561 776.554 -548.946 715.236C-565.272 654.143 -553.779 602.482 -514.787 561.688C-398.45 435.604 -305.099 362.422 -236.936 308.987C-206.003 284.737 -181.571 265.584 -163.63 248.1C-134.626 219.899 -75.0384 209.652 -4.23152 220.688C70.0451 232.265 142.082 265.015 193.411 310.541C313.604 419.945 497.651 493.025 592.036 515.455C627.08 523.809 653.215 551.006 667.616 594.11C692.679 669.126 679.214 782.951 632.477 891.168C590.595 988.611 543.123 1099.06 482.045 1180.19C450.384 1222.24 417.455 1253.68 381.376 1276.3C341.173 1301.51 298.047 1315.26 249.534 1318.32C207.501 1321.39 142.351 1303.28 61.1317 1265.95C-16.8889 1230.09 -105.642 1177.92 -188.779 1119.03C-264.953 1065.08 -334.031 1007.44 -390.676 950.696ZM635.006 542.636C622.813 530.42 608.28 522.179 591.709 518.231C497.155 495.759 312.763 422.535 192.317 312.902C141.255 267.613 69.5345 235.019 -4.44219 223.488C-74.772 212.524 -133.843 222.591 -162.456 250.412C-180.476 267.972 -204.947 287.156 -235.927 311.443C-304.034 364.835 -397.31 437.959 -513.544 563.928C-551.755 603.904 -563.021 654.485 -547.044 714.276C-530.794 775.09 -487.357 843.923 -417.94 918.866C-356.79 984.877 -277.234 1053.23 -187.869 1116.53C-104.822 1175.35 -16.1708 1227.46 61.7541 1263.27C142.735 1300.49 207.628 1318.55 249.417 1315.51C297.676 1312.46 340.559 1298.79 380.526 1273.73C416.394 1251.24 449.14 1219.97 480.634 1178.14C541.516 1097.27 588.913 986.998 630.731 889.705L630.732 889.704C677.13 782.274 690.556 669.455 665.774 595.276C658.474 573.424 648.088 555.742 635.006 542.636Z" fill="url(#paint2_linear_155_9)"/>
<path d="M-357.493 917.957C-364.004 911.437 -370.317 904.937 -376.438 898.451C-439.672 831.461 -479.382 769.795 -494.47 715.166C-509.228 661.726 -499.732 616.422 -466.244 580.515C-366.23 466.481 -278.981 393.738 -215.275 340.625C-187.824 317.738 -164.117 297.972 -146.736 280.835C-118.354 252.936 -62.7666 241.472 1.96098 250.17C69.4575 259.238 136.109 288.49 184.825 330.423C232.686 373.341 296.962 415.493 370.717 452.334C429.918 481.906 492.847 506.844 543.371 520.753C574.498 529.354 597.668 554.695 610.371 594.034C632.533 662.661 620.301 765.607 578.448 862.698C534.761 964.847 494.348 1055.03 442.12 1124.15C413.382 1162.19 383.489 1190.7 350.733 1211.33C314.283 1234.28 275.229 1246.96 231.34 1250.09C192.801 1253.44 133.359 1237.8 59.4511 1204.86C-11.2536 1173.35 -91.8377 1127.09 -167.456 1074.61C-239.564 1024.56 -304.751 970.794 -357.493 917.957ZM579.771 544.959C569.312 534.481 556.984 527.185 543.017 523.325C492.405 509.392 429.376 484.415 370.09 454.802C296.2 417.893 231.79 375.649 183.822 332.635C135.362 290.923 69.0095 261.811 1.79363 252.781C-62.4974 244.142 -117.611 255.432 -145.636 282.98C-163.074 300.172 -186.81 319.963 -214.293 342.876C-277.95 395.949 -365.13 468.635 -465.059 582.572C-497.837 617.718 -507.131 662.011 -492.707 714.244C-477.748 768.408 -438.247 829.684 -375.301 896.37C-319.679 955.286 -247.526 1016.11 -166.625 1072.26C-91.0904 1124.69 -10.6023 1170.89 60.0139 1202.37C133.697 1235.21 192.898 1250.8 231.215 1247.47C274.875 1244.36 313.705 1231.75 349.938 1208.94C382.5 1188.43 412.224 1160.08 440.809 1122.25C492.865 1053.35 533.205 963.328 576.822 861.341L576.824 861.338C618.366 764.966 630.56 662.947 608.646 595.09C601.904 574.212 592.148 557.358 579.771 544.959Z" fill="url(#paint3_linear_155_9)"/>
<path d="M-324.216 885.562C-327.455 882.317 -330.638 879.078 -333.764 875.842C-390.509 817.135 -426.273 763.062 -440.061 715.122C-453.234 669.321 -445.711 630.369 -417.702 599.348C-332.81 495.681 -250.448 422.491 -190.31 369.047C-166.462 347.855 -145.867 329.554 -129.843 313.571C-101.648 285.547 -51.3506 273.186 8.15245 279.654C68.9026 286.258 130.168 312.01 176.239 350.308C265.955 429.297 404.211 496.776 494.708 526.053C521.939 534.906 542.148 558.408 553.151 594.018C572.384 656.256 561.374 748.302 524.419 834.233L524.421 834.227C487.333 921.486 450.077 1005.03 402.194 1068.12C376.378 1102.13 349.522 1127.72 320.089 1146.35C287.393 1167.05 252.411 1178.66 213.146 1181.86C178.088 1185.5 124.347 1172.34 57.7451 1143.8C-5.65609 1116.62 -78.0794 1076.28 -146.183 1030.21C-214.203 984.191 -275.474 934.388 -324.216 885.562ZM524.512 547.136C515.809 538.417 505.691 532.114 494.323 528.418C403.686 499.096 265.2 431.499 175.329 352.37C129.503 314.278 68.5183 288.65 8.0304 282.074C-51.0686 275.65 -100.947 287.852 -128.815 315.55C-144.875 331.567 -165.488 349.885 -189.357 371.096C-249.448 424.497 -331.747 497.632 -416.571 601.214C-443.945 631.533 -451.291 669.547 -438.437 714.239C-424.771 761.751 -389.205 815.468 -332.727 873.9C-282.63 925.701 -217.871 979.018 -145.428 1028.03C-77.4032 1074.05 -5.06969 1114.34 58.2481 1141.48C124.642 1169.93 178.16 1183.06 213.014 1179.44C252.074 1176.26 286.853 1164.71 319.351 1144.14C348.606 1125.63 375.308 1100.18 400.982 1066.35C448.703 1003.48 485.886 920.088 522.91 832.982L522.912 832.976C559.586 747.698 570.556 656.496 551.541 594.96C545.364 574.962 536.218 558.863 524.512 547.136Z" fill="url(#paint4_linear_155_9)"/>
<path d="M-290.818 853.631C-290.939 853.511 -291.056 853.393 -291.176 853.272C-341.439 802.85 -373.257 756.369 -385.75 715.122C-397.316 676.937 -391.735 644.32 -369.162 618.181C-298.233 522.627 -218.444 447.049 -160.185 391.866C-141.942 374.586 -126.186 359.661 -112.949 346.307C-85.3359 318.551 -38.9397 305.005 14.342 309.139C68.3897 313.332 124.269 335.585 167.652 370.192C206.7 403.791 256.015 437.057 314.247 469.087C358.053 493.18 406.092 515.877 446.047 531.358C469.407 540.464 486.667 562.154 495.964 594.09C512.223 649.935 502.423 731.046 470.388 805.767C439.554 878.887 405.803 955.054 362.268 1012.09C339.376 1042.08 315.556 1064.74 289.445 1081.38C260.503 1099.82 229.595 1110.37 194.952 1113.63C132.352 1121.43 3.77767 1070.08 -124.973 985.834C-188.878 944.02 -246.216 898.313 -290.818 853.631ZM469.217 549.095C462.301 542.167 454.404 536.93 445.626 533.507C405.62 518.007 357.522 495.282 313.666 471.161C255.343 439.082 205.942 405.756 166.836 372.106C123.688 337.687 68.0698 315.541 14.2662 311.368C-38.6542 307.262 -84.6755 320.657 -111.997 348.119C-125.252 361.493 -141.017 376.425 -159.27 393.715C-217.482 448.854 -297.204 524.368 -368.081 619.847C-390.096 645.344 -395.527 677.095 -384.267 714.271C-371.892 755.131 -340.257 801.289 -290.242 851.465C-290.124 851.582 -290.002 851.706 -289.885 851.823C-245.361 896.427 -188.118 942.056 -124.298 983.814C4.21476 1067.9 132.455 1119.18 194.812 1111.4C229.274 1108.16 259.999 1097.67 288.762 1079.35C314.712 1062.81 338.393 1040.28 361.157 1010.46C404.539 953.621 438.22 877.605 468.999 804.617L469.002 804.61C500.785 730.474 510.545 650.119 494.471 594.91C488.868 575.656 480.305 560.203 469.217 549.095Z" fill="url(#paint5_linear_155_9)"/>
<path d="M-257.461 822.186C-296.226 783.354 -321.139 747.408 -331.581 715.217C-341.508 684.615 -337.834 658.322 -320.656 637.06C-263.051 546.631 -181.569 464.928 -122.073 405.272C-112.737 395.911 -103.918 387.067 -96.0521 379.041C-68.5823 351.114 -27.1778 336.76 20.5345 338.622C68.6429 340.501 117.842 358.774 159.069 390.075C186.786 413.226 265.438 473.809 397.394 536.663C416.919 546.032 431.247 565.961 438.827 594.306C452.05 643.74 443.441 713.857 416.363 777.291C391.415 837.066 361.518 905.108 322.342 956.057C280.942 1009.9 233.322 1039.12 176.761 1045.4C148.626 1049.64 106.247 1041.45 54.2254 1021.72C4.67628 1002.93 -49.9839 975.199 -103.844 941.521C-159.462 906.744 -209.554 868.452 -248.703 830.783C-251.696 827.904 -254.617 825.036 -257.461 822.186ZM413.87 550.722C408.792 545.634 403.126 541.567 396.924 538.591C375.815 528.537 333.26 507.468 285.452 479.337C235.265 449.811 192.5 420.373 158.343 391.841C117.344 360.713 68.3827 342.529 20.5039 340.66C-26.8847 338.81 -67.9677 353.026 -95.1767 380.688C-103.046 388.719 -111.868 397.563 -121.206 406.928C-180.658 466.538 -262.08 548.181 -319.58 638.463L-319.641 638.548C-336.314 659.16 -339.881 684.679 -330.242 714.393C-319.302 748.117 -290.821 787.783 -247.872 829.11C-208.796 866.708 -158.787 904.936 -103.249 939.661C-49.458 973.295 5.12568 1000.99 54.6018 1019.75C106.446 1039.41 148.637 1047.58 176.611 1043.37C232.849 1037.13 280.181 1008.08 321.332 954.562C360.364 903.801 390.194 835.908 415.09 776.255L415.094 776.246C441.956 713.322 450.522 643.873 437.449 595C432.438 576.27 424.424 561.293 413.87 550.722Z" fill="url(#paint6_linear_155_9)"/>
<path d="M-223.211 792.454C-250.735 764.881 -269.398 738.557 -277.635 715.521C-285.905 692.396 -284.056 672.349 -272.14 655.935C-228.848 566.282 -123.955 458.014 -79.1572 411.776C-23.1082 354.127 71.3226 353.383 150.481 409.963C211.388 458.848 288.755 505.666 334.979 533.639C339.888 536.609 344.493 539.396 348.743 541.981C364.492 551.633 375.906 569.898 381.754 594.793C391.85 637.769 384.407 696.794 362.333 748.826C340.385 802.168 315.511 857.408 282.416 900.026C247.097 945.506 206.587 970.741 158.57 977.171C110.026 986.101 15.2704 954.763 -82.8105 897.331C-129.97 869.716 -172.699 838.989 -206.375 808.472C-212.305 803.097 -217.923 797.748 -223.211 792.454ZM358.452 551.796C355.289 548.627 351.873 545.91 348.216 543.669C343.968 541.085 339.366 538.3 334.457 535.329C288.206 507.34 210.796 460.495 149.851 411.578C71.1557 355.331 -22.6998 356.014 -78.3586 413.26C-123.115 459.455 -227.928 567.638 -271.071 657.045L-271.108 657.121L-271.155 657.186C-282.662 672.995 -284.443 692.349 -276.446 714.71C-266.732 741.873 -242.252 773.764 -205.655 806.927C-172.045 837.384 -129.39 868.058 -82.3025 895.63C15.575 952.944 110.059 984.23 158.407 975.336C265.044 961.055 317.049 855.148 361.179 747.894L361.183 747.883C383.074 696.287 390.472 637.839 380.49 595.348C376.124 576.766 368.599 561.962 358.452 551.796Z" fill="url(#paint7_linear_155_9)"/>
<path d="M-188.99 764.209C-205.816 747.355 -217.877 731.076 -224.032 716.339C-230.661 700.468 -230.531 686.513 -223.646 674.86C-216.73 645.591 -194.694 605.933 -158.146 556.981C-131.523 521.321 -96.5746 480.325 -62.2614 444.508C-7.14036 387.143 69.1799 381.663 141.895 429.847C166.475 448.493 192.383 467.273 217.439 485.434C249.843 508.922 280.449 531.106 300.103 547.311C316.607 561.028 326.299 587.125 327.405 620.775C328.453 652.67 321.492 688.963 308.304 720.352C278.998 793.078 257.737 824.629 242.489 843.99C213.27 881.09 179.871 902.334 140.38 908.936C98.6315 918.478 21.1421 897.209 -61.8204 853.425C-114.817 825.457 -159.311 793.938 -188.99 764.209ZM302.937 551.871C301.828 550.758 300.682 549.713 299.501 548.728C279.877 532.548 249.285 510.374 216.896 486.898C191.835 468.732 165.922 449.949 141.362 431.316C69.0823 383.422 -6.77956 388.842 -61.5406 445.832C-95.8162 481.609 -130.725 522.557 -157.315 558.173C-193.783 607.02 -215.731 646.504 -222.548 675.532L-222.583 675.68L-222.654 675.799C-229.261 686.891 -229.379 700.256 -223.003 715.52C-206.123 755.934 -144.203 808.185 -61.4058 851.884C21.372 895.57 98.624 916.807 140.203 907.304C179.465 900.741 212.651 879.633 241.683 842.77C270.587 806.069 291.916 757.632 307.268 719.534L307.273 719.521C320.351 688.397 327.256 652.428 326.218 620.837C325.209 590.186 316.985 565.943 302.937 551.871Z" fill="url(#paint8_linear_155_9)"/>
<path d="M-154.712 738.952C-161.67 731.982 -167.094 725.226 -170.722 718.864C-176.031 709.56 -177.525 701.181 -175.166 693.955C-180.84 667.941 -156.5 623.308 -135.038 590.389C-110.838 553.271 -77.3155 510.973 -45.3635 477.243C-17.8404 448.254 9.78618 431.848 39.0945 427.086C69.0258 422.225 99.8444 429.634 133.311 449.737C182.16 483.741 228.533 524.141 251.472 552.68C262.602 566.656 268.786 589.251 268.886 616.305C268.98 641.614 263.655 669.163 254.275 691.886C230.501 752.887 194.003 824.928 122.193 840.709C87.5093 850.809 26.7972 839.479 -40.1854 810.395C-89.1325 789.139 -130.892 762.812 -154.712 738.952ZM229.933 530.853C204.96 505.836 169.618 476.632 132.874 451.054C99.6103 431.073 68.9682 423.701 39.226 428.533C10.1068 433.264 -17.3529 449.577 -44.7236 478.404C-104.445 541.451 -184.07 649.959 -174.103 693.799L-174.041 694.072L-174.129 694.328C-176.425 701.071 -175.003 709.023 -169.902 717.965C-153.972 745.89 -102.936 781.623 -39.8777 809.001C26.9413 838.015 87.4548 849.332 121.997 839.273C193.386 823.584 229.696 751.885 253.355 691.175L253.362 691.159C262.655 668.648 267.931 641.362 267.838 616.298C267.738 589.66 261.679 567.45 250.775 553.756C245.142 546.751 238.09 539.024 229.933 530.853Z" fill="url(#paint9_linear_155_9)"/>
<path d="M-120.369 721.76C-123.369 718.755 -125.436 715.883 -126.433 713.22C-131.958 709.202 -135.053 702.871 -135.637 694.41C-137.345 669.654 -117.596 631.961 -100.727 604.7C-80.6549 572.261 -53.6407 536.85 -28.4658 509.975C0.0298341 479.594 22.7723 463.126 45.2773 456.58C69.2863 449.598 94.5311 453.742 124.726 469.626C158.2 489.715 188.852 524.438 202.84 558.104C215.31 588.407 211.315 635.441 200.249 663.411C178.627 722.456 146.249 759.15 104.017 772.471C87.6121 778.797 66.0504 780.937 39.9551 778.827C17.3613 776.999 -8.00573 771.955 -33.4036 764.241C-73.1653 752.16 -106.594 735.558 -120.369 721.76ZM-125.755 712.291L-125.688 712.479C-124.763 715.07 -122.762 717.87 -119.838 720.799C-89.5228 751.175 40.2666 795.737 103.787 771.248C145.77 758.005 177.945 721.528 199.442 662.822L199.448 662.804C210.395 635.138 214.363 588.642 202.051 558.725C188.157 525.286 157.674 490.769 124.391 470.796C94.3851 455.013 69.302 450.885 45.4714 457.816C23.1061 464.322 0.475187 480.717 -27.9076 510.977C-53.0361 537.804 -80.0006 573.15 -100.035 605.526C-116.79 632.603 -136.41 669.984 -134.731 694.3C-134.175 702.369 -131.198 708.393 -125.889 712.196L-125.755 712.291Z" fill="url(#paint10_linear_155_9)"/>
<path d="M-94.6435 724.914C-97.6466 721.905 -99.6972 717.982 -100.778 713.154C-103.487 701.049 -101.325 677.005 -75.6389 631.209C-58.421 600.511 -34.4692 567.425 -11.568 542.704C15.4966 513.49 33.2437 495.1 51.4555 486.083C70.2959 476.755 89.0372 477.75 116.142 489.516C131.082 496 141.813 508.786 148.038 527.511C161.496 568.004 149.837 623.374 146.231 634.911C139.492 656.46 126.539 674.949 107.729 689.864C91.5396 702.703 70.9802 712.951 46.6238 720.324C2.59725 733.653 -46.4184 735.11 -77.6104 732.03C-84.9515 731.306 -90.643 728.922 -94.6435 724.914ZM131.708 501.291C127.135 496.709 121.866 493.117 115.919 490.536C88.9881 478.846 70.3888 477.847 51.7206 487.091C33.616 496.054 15.9135 514.4 -11.0913 543.551C-52.845 588.623 -108.547 674.845 -100.042 712.847C-97.6281 723.633 -90.0647 729.731 -77.5602 730.965C-46.4224 734.04 2.50825 732.585 46.4546 719.281C70.7358 711.931 91.2214 701.721 107.344 688.936C126.007 674.137 138.852 655.815 145.524 634.48C149.104 623.031 160.679 568.088 147.34 527.952C143.688 516.964 138.455 508.05 131.708 501.291Z" fill="url(#paint11_linear_155_9)"/>
</g>
<g opacity="0.4">
<path d="M2307.48 492.535C2312.87 466.17 2317.6 440.514 2321.62 415.698C2343.75 279.424 2344.56 172.787 2324.03 98.7496C2303.03 23.0007 2259.9 -16.5208 2195.84 -18.7145C2001.36 -25.3767 1875.32 -2.53939 1791.91 12.5704C1754.37 19.3723 1724.72 24.744 1702.26 24.7936C1664.9 24.8749 1605.81 71.2748 1548.07 145.887C1485.93 226.181 1438.86 320.986 1418.92 405.995C1391.42 523.246 1338.16 640.026 1298.32 717.345C1251.92 807.41 1196.02 897.203 1148.8 957.541C1118.31 996.492 1107.49 1045.62 1117.52 1099.62C1134.87 1193.12 1212.31 1289.09 1319.61 1350.06C1370.47 1378.97 1423.06 1408.85 1474.65 1433.61C1531.69 1460.98 1581.33 1478.91 1626.41 1488.44C1680.24 1499.82 1729.15 1499.84 1775.94 1488.51C1828.18 1475.87 1876.66 1449.46 1924.13 1407.78C2005.21 1336.6 2126.46 1093.49 2218.98 816.574C2256.83 703.298 2286.96 592.806 2307.48 492.535ZM1119.77 1026.45C1124.75 1002.07 1135.06 979.635 1150.54 959.86C1197.86 899.4 1253.86 809.448 1300.34 719.237C1340.26 641.761 1393.63 524.726 1421.21 407.143C1441.05 322.563 1487.93 228.18 1549.82 148.197C1607.18 74.0821 1665.67 27.9906 1702.48 27.9105C1725.09 27.8609 1754.81 22.4761 1792.44 15.6596C1875.77 0.562289 2001.7 -22.2532 2195.99 -15.5983C2258.88 -13.4457 2301.2 25.3062 2321.79 99.5772C2342.16 173.041 2341.32 279.097 2319.29 414.8C2299.97 533.805 2264.53 672.235 2216.78 815.123C2124.4 1091.6 2003.46 1334.23 1922.68 1405.15C1875.46 1446.61 1827.25 1472.87 1775.31 1485.45C1728.79 1496.71 1680.14 1496.68 1626.58 1485.36C1526.11 1464.13 1421.53 1404.7 1320.39 1347.22C1213.85 1286.67 1137 1191.62 1119.83 1099.14C1115.09 1073.62 1115.12 1049.19 1119.77 1026.45Z" fill="url(#paint12_linear_155_9)"/>
<path d="M2265.28 491.241C2269.54 470.392 2273.34 450.043 2276.65 430.269C2297.55 305.549 2298.83 207.976 2280.47 140.259C2261.9 71.7972 2223.43 35.809 2166.11 33.2947C1992.93 24.0313 1873.08 42.0046 1793.77 53.8978C1756.54 59.4811 1727.13 63.8912 1704.42 63.7787C1667.72 63.6243 1611.31 105.906 1557.21 174.124C1499.28 247.17 1454.84 335.08 1435.26 415.314C1409.48 523.278 1360.98 631.082 1324.84 702.508C1282.39 786.418 1233.29 867.398 1190.14 924.683C1162.92 960.84 1153.59 1006.2 1163.14 1055.87C1179.72 1142.09 1250.98 1230.35 1349.11 1286.19L1349.11 1286.19C1441.66 1338.99 1537.37 1393.59 1631.5 1413.33C1681.08 1423.72 1726.17 1423.73 1769.36 1413.34C1817.53 1401.75 1862.25 1377.6 1906.06 1339.5C1981.47 1274.44 2094.41 1051.53 2180.7 797.43C2217.12 690.215 2245.97 585.637 2265.28 491.241ZM1164.99 986.385C1169.44 964.668 1178.41 944.616 1191.81 926.825C1235.04 869.427 1284.22 788.308 1326.75 704.266C1362.96 632.698 1411.55 524.663 1437.41 416.41C1456.88 336.586 1501.14 249.071 1558.84 176.313C1612.57 108.552 1668.43 66.5519 1704.61 66.7045C1727.45 66.8178 1756.91 62.3997 1794.21 56.8057C1873.46 44.9227 1993.21 26.9649 2166.23 36.2195C2222.45 38.6861 2260.17 73.9439 2278.36 141.016C2296.58 208.193 2295.27 305.222 2274.46 429.408C2256.18 538.538 2223.04 665.321 2178.64 796.051C2092.48 1049.74 1979.84 1272.19 1904.71 1337.02C1861.13 1374.92 1816.66 1398.94 1768.77 1410.46C1725.83 1420.79 1680.99 1420.78 1631.66 1410.43C1537.83 1390.76 1442.27 1336.24 1349.85 1283.52L1349.85 1283.52C1252.42 1228.07 1181.71 1140.66 1165.31 1055.4C1160.65 1031.16 1160.58 1007.95 1164.99 986.385Z" fill="url(#paint13_linear_155_9)"/>
<path d="M2223.12 490.154C2226.28 474.711 2229.14 459.597 2231.71 444.817C2251.39 331.65 2253.15 243.14 2236.94 181.746C2220.79 120.577 2186.96 88.1285 2136.38 85.3032C1983.39 73.3849 1873.99 86.1471 1794.11 95.4669C1757.86 99.6954 1729.23 103.036 1706.57 102.762C1669.98 102.369 1617.55 139.601 1566.35 202.358C1512.63 268.191 1470.81 349.205 1451.61 424.63C1407.97 603.479 1296.06 802.012 1231.49 891.824C1207.53 925.19 1199.67 966.798 1208.76 1012.15C1224.59 1091.08 1289.67 1171.61 1378.62 1222.31C1458.55 1268.12 1549.14 1320.04 1636.59 1338.21C1681.92 1347.63 1723.2 1347.61 1762.78 1338.17C1806.88 1327.64 1847.84 1305.74 1888 1271.22C1922.99 1241.63 1966.31 1177.54 2013.27 1085.88C2058.38 997.829 2104.26 888.584 2142.46 778.267C2177.45 677.189 2205.03 578.575 2223.12 490.154ZM1210.19 946.246C1214.09 927.212 1221.74 909.564 1233.08 893.788C1297.77 803.815 1409.88 604.903 1453.6 425.68C1472.71 350.646 1514.35 269.999 1567.85 204.431C1618.71 142.095 1670.64 105.113 1706.74 105.499C1729.5 105.775 1758.18 102.43 1794.48 98.1944C1874.3 88.8834 1983.61 76.1317 2136.46 88.0362C2186.02 90.8048 2219.16 122.564 2234.96 182.429C2251.04 243.318 2249.26 331.319 2229.67 443.99C2212.41 543.238 2181.59 658.38 2140.53 776.959C2102.38 887.158 2056.55 996.278 2011.49 1084.22C1964.67 1175.61 1921.53 1239.47 1886.75 1268.88C1846.8 1303.22 1806.07 1325 1762.23 1335.47C1722.88 1344.86 1681.84 1344.87 1636.74 1335.5C1549.57 1317.39 1459.12 1265.55 1379.31 1219.82L1379.31 1219.82C1291.01 1169.48 1226.44 1089.73 1210.79 1011.68C1206.18 988.686 1206.02 966.668 1210.19 946.246Z" fill="url(#paint14_linear_155_9)"/>
<path d="M2181.02 489.326C2183.1 479.164 2185.03 469.169 2186.82 459.331C2205.27 357.716 2207.5 278.27 2193.45 223.201C2179.71 169.33 2150.51 140.432 2106.65 137.31C1972.43 122.564 1868.11 131.027 1791.94 137.207C1759.12 139.87 1730.77 142.169 1708.73 141.745C1672.77 141.119 1622.96 174.333 1575.48 230.592C1525.98 289.258 1486.78 363.377 1467.95 433.945C1450.26 504.648 1419.12 587.246 1377.88 672.833C1344.78 741.531 1306.49 809.374 1272.84 858.966C1252.12 889.545 1245.73 927.413 1254.38 968.47C1269.47 1040.1 1328.38 1112.89 1408.12 1158.43C1491.73 1206.62 1567.03 1247.76 1641.68 1263.09C1682.77 1271.53 1720.22 1271.5 1756.2 1262.99C1796.23 1253.52 1833.43 1233.88 1869.93 1202.93C1902.27 1176.24 1942.22 1118.47 1985.44 1035.88C2026.79 956.866 2068.98 858.564 2104.24 759.082C2137.86 664.218 2164.18 571.659 2181.02 489.326ZM1255.36 906.01C1258.7 889.683 1265.05 874.47 1274.35 860.748C1308.06 811.069 1346.41 743.119 1379.56 674.323C1420.87 588.58 1452.08 505.806 1469.8 434.946C1488.54 364.748 1527.56 290.969 1576.86 232.547C1624.02 176.667 1673.37 143.676 1708.87 144.294C1730.99 144.719 1759.37 142.417 1792.23 139.751C1868.35 133.576 1972.59 125.12 2106.69 139.852C2149.61 142.909 2178.17 171.155 2191.61 223.809C2205.54 278.409 2203.29 357.383 2184.92 458.538C2168.68 547.914 2140.17 651.412 2102.46 757.845C2067.24 857.217 2025.1 955.402 1983.8 1034.31C1940.71 1116.65 1900.94 1174.21 1868.78 1200.74C1832.47 1231.53 1795.48 1251.06 1755.69 1260.48C1719.93 1268.93 1682.68 1268.96 1641.82 1260.57C1567.41 1245.29 1492.25 1204.22 1408.77 1156.11L1408.76 1156.11C1329.62 1110.9 1271.18 1038.82 1256.26 967.998C1251.67 946.209 1251.41 925.332 1255.36 906.01Z" fill="url(#paint15_linear_155_9)"/>
<path d="M2139.01 488.844C2140.05 483.788 2141.04 478.779 2141.99 473.816C2159.22 383.75 2161.93 313.369 2150.04 264.624C2138.68 218.056 2114.08 192.719 2076.93 189.32C1959.72 171.321 1859.08 175.702 1785.6 178.901C1756.46 180.17 1731.3 181.266 1710.88 180.727C1675.01 179.86 1628.99 208.327 1584.62 258.827C1539.32 310.386 1502.75 377.61 1484.29 443.263C1450.44 574.63 1372.38 733.802 1314.18 826.113C1296.69 853.924 1291.79 888.069 1300.02 924.857C1314.39 989.153 1367.12 1054.18 1437.62 1094.56L1437.62 1094.56C1508.86 1135.9 1578.47 1174.15 1646.78 1187.98C1683.61 1195.43 1717.25 1195.38 1749.62 1187.81C1785.58 1179.41 1819.03 1162.01 1851.87 1134.64C1881.57 1110.84 1918.15 1059.39 1957.65 985.868C1995.24 915.881 2033.75 828.519 2066.07 739.876C2098.35 651.342 2123.45 564.929 2139.01 488.844ZM1300.47 865.639C1303.25 852.054 1308.31 839.317 1315.62 827.706C1373.91 735.253 1452.1 575.81 1486 444.215C1504.36 378.913 1540.77 312.001 1585.88 260.665C1629.95 210.507 1675.56 182.232 1711.01 183.089C1731.47 183.627 1756.65 182.531 1785.82 181.261C1859.24 178.066 1959.8 173.687 2076.92 191.669C2113.22 194.993 2137.23 219.717 2148.32 265.158C2160.1 313.468 2157.38 383.415 2140.23 473.057C2125.01 552.548 2098.81 644.421 2064.43 738.711C2032.14 827.252 1993.68 914.506 1956.14 984.401C1916.77 1057.69 1880.35 1108.94 1850.82 1132.61C1818.15 1159.84 1784.89 1177.13 1749.15 1185.49C1716.98 1193.01 1683.53 1193.06 1646.9 1185.64C1578.82 1171.86 1509.35 1133.68 1438.23 1092.41L1438.22 1092.41C1368.26 1052.34 1315.96 987.952 1301.75 924.381C1297.13 903.723 1296.74 883.913 1300.47 865.639Z" fill="url(#paint16_linear_155_9)"/>
<path d="M2097.13 488.824C2097.17 488.637 2097.2 488.453 2097.24 488.265C2113.26 409.748 2116.45 348.428 2106.72 306.009C2097.71 266.739 2077.69 244.977 2047.2 241.328C1945.01 219.16 1845.28 219.678 1772.47 220.056C1749.66 220.175 1729.97 220.277 1713.04 219.712C1677.76 218.614 1634.29 243.163 1593.76 287.061C1552.66 331.589 1518.71 391.919 1500.63 452.58C1485.53 509.134 1462.08 573.245 1430.92 643.165C1407.48 695.762 1380 750.471 1355.53 793.265C1341.24 818.328 1337.83 848.781 1345.66 881.337C1359.36 938.269 1405.9 995.497 1467.13 1030.69C1526.63 1065.51 1589.92 1100.54 1651.87 1112.86C1684.45 1119.34 1714.27 1119.27 1743.04 1112.64C1774.93 1105.29 1804.62 1090.16 1833.81 1066.36C1887.46 1024.88 1965.5 885.946 2027.97 720.645C2058.97 638.599 2082.89 558.451 2097.13 488.824ZM1345.51 825.067C1347.72 814.271 1351.52 804.077 1356.89 794.658C1381.4 751.81 1408.91 697.035 1432.38 644.376C1463.58 574.348 1487.07 510.123 1502.2 453.485C1520.18 393.153 1553.97 333.108 1594.89 288.781C1635.14 245.181 1678.24 220.797 1713.14 221.883C1730.1 222.449 1749.8 222.346 1772.62 222.228C1845.38 221.851 1945.02 221.333 2047.14 243.481C2076.87 247.043 2096.36 268.228 2105.13 306.461C2114.77 348.481 2111.57 409.404 2095.63 487.536C2095.6 487.719 2095.56 487.911 2095.52 488.093C2081.3 557.598 2057.43 637.611 2026.46 719.548C1964.11 884.543 1886.3 1023.16 1832.85 1064.47C1803.82 1088.15 1774.3 1103.2 1742.61 1110.5C1714.02 1117.08 1684.37 1117.15 1651.98 1110.71C1590.24 1098.44 1527.08 1063.47 1467.69 1028.71L1467.68 1028.71C1406.93 993.792 1360.78 937.138 1347.25 880.853C1342.52 861.227 1341.97 842.376 1345.51 825.067Z" fill="url(#paint17_linear_155_9)"/>
<path d="M2055.51 489.161C2067.89 428.649 2070.6 380.995 2063.56 347.362C2056.86 315.389 2041.38 297.218 2017.53 293.348C1928.41 265.115 1824.41 262.037 1748.47 259.79C1736.55 259.438 1725.3 259.104 1715.19 258.696C1679.95 257.353 1640.07 277.454 1602.9 315.296C1565.43 353.453 1534.91 405.517 1516.97 461.899C1505.92 501.484 1472.11 609.739 1396.87 760.423C1385.77 782.773 1383.85 809.587 1391.34 837.971C1404.39 887.477 1444.74 936.843 1496.62 966.806C1545.06 995.472 1601.39 1026.96 1656.97 1037.75C1715.69 1049.15 1767.63 1036.17 1815.74 998.078C1840.2 980.018 1870.1 941.195 1902.17 885.819C1932.72 833.074 1963.08 769.304 1989.96 701.401C2017.72 631.281 2039.39 562.569 2052.63 502.692C2053.64 498.115 2054.6 493.602 2055.51 489.161ZM1390.44 784.191C1392.06 776.264 1394.64 768.702 1398.16 761.602C1410.2 737.498 1434.08 688.266 1458.78 629.399C1484.71 567.606 1504.77 511.539 1518.39 462.754C1536.23 406.684 1566.6 354.873 1603.9 316.898C1640.81 279.313 1680.37 259.346 1715.28 260.677C1725.39 261.086 1736.65 261.418 1748.57 261.772C1824.45 264.016 1928.37 267.091 2017.34 295.286L2017.43 295.308C2040.57 299.044 2055.6 316.68 2062.1 347.725C2069.47 382.96 2065.69 436.301 2051.17 501.991C2037.95 561.755 2016.31 630.354 1988.59 700.37C1961.75 768.186 1931.43 831.868 1900.93 884.535C1868.97 939.722 1839.21 978.386 1814.89 996.342C1767.05 1034.22 1715.43 1047.12 1657.06 1035.79C1601.69 1025.04 1545.48 993.618 1497.14 965.009L1497.14 965.004C1445.67 935.284 1405.68 886.418 1392.77 837.475C1387.82 818.717 1387.07 800.664 1390.44 784.191Z" fill="url(#paint18_linear_155_9)"/>
<path d="M2013.99 491.545C2022.78 448.579 2025.1 413.362 2020.67 388.712C2016.23 363.965 2005.18 349.384 1987.84 345.371C1910.51 306.852 1775.15 300.424 1717.34 297.679C1645.11 294.408 1569.44 365.77 1533.31 471.217C1508.07 556.62 1468.72 652.917 1445.2 710.451C1442.71 716.56 1440.37 722.291 1438.21 727.592C1430.26 747.292 1429.87 770.557 1437.09 794.87C1449.56 836.841 1483.68 878.249 1526.13 902.93C1569.1 928.752 1615.31 953.858 1662.06 962.632C1711.94 971.996 1756.3 961.254 1797.67 929.794C1840.66 899.927 1901.27 802.728 1952.08 682.182C1976.51 624.22 1995.92 567.153 2008.21 517.151C2010.38 508.345 2012.31 499.797 2013.99 491.545ZM1435.15 742.819C1436.16 737.881 1437.59 733.111 1439.44 728.537C1441.59 723.239 1443.93 717.511 1446.43 711.401C1469.96 653.833 1509.33 557.482 1534.59 472.026C1570.5 367.197 1645.69 296.223 1717.41 299.472C1775.17 302.213 1910.42 308.634 1987.52 347.072L1987.58 347.104L1987.65 347.121C2004.38 350.962 2015.04 365.041 2019.34 388.971C2024.56 418.038 2020.26 462.129 2006.9 516.467C1994.64 566.371 1975.26 623.34 1950.87 681.212C1900.16 801.508 1839.74 898.46 1796.93 928.207C1705.05 998.074 1613.01 953.228 1526.6 901.307L1526.59 901.302C1484.5 876.829 1450.69 835.847 1438.37 794.35C1432.98 776.202 1431.91 758.66 1435.15 742.819Z" fill="url(#paint19_linear_155_9)"/>
<path d="M1973.21 495.093C1978.59 468.828 1980.44 446.654 1978.31 430.209C1976.02 412.499 1969.25 401.467 1958.2 397.419C1938.71 379.344 1902.2 364.504 1849.67 353.308C1811.41 345.151 1763.96 339.084 1719.49 336.662C1648.14 332.909 1584.65 386.694 1549.66 480.535C1538.95 514.137 1527.26 548.858 1515.94 582.436C1501.31 625.862 1487.49 666.879 1479.55 694.78C1472.94 718.297 1477.66 746.497 1492.85 774.18C1507.24 800.418 1530.12 824.062 1555.63 839.049C1613.72 874.725 1645.75 883.69 1667.15 887.514C1708.17 894.84 1744.95 886.335 1779.6 861.508C1817.46 837.307 1869.11 761.296 1914.38 663.156C1943.3 600.465 1963.74 541.421 1973.21 495.093ZM1479.47 700.576C1479.82 698.843 1480.23 697.137 1480.71 695.451C1488.63 667.593 1502.45 626.595 1517.07 583.19C1528.39 549.605 1540.09 514.877 1550.78 481.3C1585.57 388.023 1648.66 334.539 1719.55 338.267C1763.97 340.686 1811.37 346.746 1849.58 354.892C1901.99 366.064 1938.35 380.834 1957.64 398.791L1957.74 398.883L1957.85 398.924C1968.42 402.736 1974.9 413.306 1977.1 430.34C1982.93 475.438 1958.49 564.297 1913.31 662.242C1868.14 760.164 1816.67 835.968 1778.97 860.072C1744.52 884.755 1707.97 893.207 1667.21 885.926C1626.63 878.678 1586.5 856.296 1556.06 837.607L1556.05 837.601C1530.76 822.741 1508.08 799.313 1493.83 773.324C1480 748.108 1474.98 722.505 1479.47 700.576Z" fill="url(#paint20_linear_155_9)"/>
<path d="M1933.82 501.068C1936.04 490.206 1937.14 480.684 1936.99 472.845C1936.79 461.379 1933.98 453.557 1928.65 449.591C1920.75 424.519 1880.03 407.465 1847.19 397.563C1810.17 386.397 1763.24 378.204 1721.65 375.648C1685.85 373.498 1655.98 381.464 1630.33 399.999C1604.14 418.929 1583.1 448.322 1566 489.858C1543.27 554.203 1525.57 621.763 1520.9 662.006C1518.7 681.634 1524.55 704.368 1537.39 726.023C1549.4 746.282 1566.8 764.197 1585.13 775.174C1633.22 805.714 1696.72 835.363 1761.53 793.231C1794.02 774.858 1837.04 719.558 1876.58 645.32C1905.47 591.069 1926.21 538.25 1933.82 501.068ZM1527.66 628.184C1535.64 589.199 1549.88 538.976 1566.98 490.576C1583.97 449.292 1604.89 420.063 1630.92 401.253C1656.4 382.838 1686.09 374.925 1721.69 377.062C1799.43 381.841 1914.74 407.715 1927.72 450.276L1927.8 450.541L1928 450.679C1933.05 454.308 1935.71 461.734 1935.91 472.754C1936.54 507.165 1912.89 574.556 1875.67 644.443C1836.22 718.501 1793.36 773.638 1761.01 791.937C1696.57 833.821 1633.38 804.301 1585.52 773.906L1585.51 773.899C1567.35 763.025 1550.12 745.281 1538.22 725.219C1525.58 703.897 1519.81 681.564 1521.97 662.333C1523.12 652.453 1525.06 640.917 1527.66 628.184Z" fill="url(#paint21_linear_155_9)"/>
<path d="M1898.21 513.525C1899.17 508.842 1899.45 504.976 1898.97 502.091C1901.46 494.677 1900.91 487.269 1897.33 480.075C1886.88 459.028 1853.13 444.012 1826.66 435.123C1795.16 424.544 1756.71 416.884 1723.8 414.631C1686.56 412.113 1660.56 416.307 1639.48 428.235C1617 440.961 1598.84 463.503 1582.34 499.18C1565.23 540.711 1557.37 591.763 1562.28 629.274C1566.8 662.946 1592.45 697.417 1614.63 711.295C1660.06 741.914 1703.41 746.509 1743.45 724.954C1759.56 717.499 1777.78 702.776 1797.58 681.208C1814.73 662.533 1832.56 639.181 1849.13 613.675C1875.08 573.74 1893.82 535.026 1898.21 513.525ZM1897.99 501.867L1898.03 502.068C1898.52 504.839 1898.27 508.598 1897.33 513.162C1887.65 560.491 1805.41 694.933 1743.05 723.802C1703.24 745.23 1660.16 740.653 1614.99 710.209L1614.98 710.199C1593.04 696.475 1567.67 662.413 1563.21 629.169C1558.32 591.91 1566.16 541.151 1583.17 499.858C1599.57 464.405 1617.6 442 1639.92 429.369C1660.86 417.515 1686.74 413.347 1723.83 415.856C1756.68 418.105 1795.06 425.751 1826.5 436.309C1852.79 445.138 1886.29 460.004 1896.56 480.678C1899.97 487.538 1900.47 494.611 1898.05 501.689L1897.99 501.867Z" fill="url(#paint22_linear_155_9)"/>
<path d="M1879.2 535.643C1880.16 530.954 1879.92 526.262 1878.48 521.588C1874.86 509.869 1861.66 492.339 1819.3 475.384C1790.91 464.018 1756.01 455.88 1725.94 453.613C1690.41 450.934 1667.47 449.789 1648.64 456.475C1629.16 463.391 1614.69 478.465 1598.69 508.504C1589.86 525.06 1587.41 543.435 1591.39 563.114C1599.98 605.667 1635.72 640.947 1644.11 647.401C1659.77 659.453 1678.93 664.33 1701.05 661.894C1720.09 659.798 1741.39 652.306 1764.33 639.627C1805.81 616.71 1845.6 580.522 1869.01 554.297C1874.52 548.126 1877.92 541.888 1879.2 535.643ZM1591.89 529.757C1593.35 522.617 1595.84 515.737 1599.35 509.147C1615.25 479.302 1629.61 464.333 1648.91 457.48C1667.63 450.834 1690.51 451.978 1725.97 454.652C1780.79 458.785 1866.39 485.112 1877.75 521.904C1880.97 532.347 1877.85 542.974 1868.46 553.487C1845.1 579.666 1805.37 615.79 1763.97 638.666C1741.09 651.306 1719.88 658.772 1700.92 660.86C1678.96 663.277 1659.97 658.452 1644.46 646.518C1636.14 640.114 1600.68 605.111 1592.15 562.934C1589.82 551.386 1589.74 540.289 1591.89 529.757Z" fill="url(#paint23_linear_155_9)"/>
</g>
<defs>
<linearGradient id="paint0_linear_155_9" x1="-336.482" y1="174.023" x2="465.63" y2="1206.46" gradientUnits="userSpaceOnUse">
<stop stop-color="#E6E6E6"/>
<stop offset="1" stop-color="#DDE2EA" stop-opacity="0"/>
</linearGradient>
<linearGradient id="paint1_linear_155_9" x1="-336.482" y1="174.023" x2="465.63" y2="1206.46" gradientUnits="userSpaceOnUse">
<stop stop-color="#E6E6E6"/>
<stop offset="1" stop-color="#DDE2EA" stop-opacity="0"/>
</linearGradient>
<linearGradient id="paint2_linear_155_9" x1="-336.482" y1="174.023" x2="465.63" y2="1206.46" gradientUnits="userSpaceOnUse">
<stop stop-color="#E6E6E6"/>
<stop offset="1" stop-color="#DDE2EA" stop-opacity="0"/>
</linearGradient>
<linearGradient id="paint3_linear_155_9" x1="-336.482" y1="174.023" x2="465.63" y2="1206.46" gradientUnits="userSpaceOnUse">
<stop stop-color="#E6E6E6"/>
<stop offset="1" stop-color="#DDE2EA" stop-opacity="0"/>
</linearGradient>
<linearGradient id="paint4_linear_155_9" x1="-336.482" y1="174.023" x2="465.63" y2="1206.46" gradientUnits="userSpaceOnUse">
<stop stop-color="#E6E6E6"/>
<stop offset="1" stop-color="#DDE2EA" stop-opacity="0"/>
</linearGradient>
<linearGradient id="paint5_linear_155_9" x1="-336.482" y1="174.023" x2="465.63" y2="1206.46" gradientUnits="userSpaceOnUse">
<stop stop-color="#E6E6E6"/>
<stop offset="1" stop-color="#DDE2EA" stop-opacity="0"/>
</linearGradient>
<linearGradient id="paint6_linear_155_9" x1="-336.482" y1="174.023" x2="465.63" y2="1206.46" gradientUnits="userSpaceOnUse">
<stop stop-color="#E6E6E6"/>
<stop offset="1" stop-color="#DDE2EA" stop-opacity="0"/>
</linearGradient>
<linearGradient id="paint7_linear_155_9" x1="-336.482" y1="174.023" x2="465.63" y2="1206.46" gradientUnits="userSpaceOnUse">
<stop stop-color="#E6E6E6"/>
<stop offset="1" stop-color="#DDE2EA" stop-opacity="0"/>
</linearGradient>
<linearGradient id="paint8_linear_155_9" x1="-336.482" y1="174.023" x2="465.63" y2="1206.46" gradientUnits="userSpaceOnUse">
<stop stop-color="#E6E6E6"/>
<stop offset="1" stop-color="#DDE2EA" stop-opacity="0"/>
</linearGradient>
<linearGradient id="paint9_linear_155_9" x1="-336.482" y1="174.023" x2="465.63" y2="1206.46" gradientUnits="userSpaceOnUse">
<stop stop-color="#E6E6E6"/>
<stop offset="1" stop-color="#DDE2EA" stop-opacity="0"/>
</linearGradient>
<linearGradient id="paint10_linear_155_9" x1="-336.482" y1="174.023" x2="465.63" y2="1206.46" gradientUnits="userSpaceOnUse">
<stop stop-color="#E6E6E6"/>
<stop offset="1" stop-color="#DDE2EA" stop-opacity="0"/>
</linearGradient>
<linearGradient id="paint11_linear_155_9" x1="-336.482" y1="174.023" x2="465.63" y2="1206.46" gradientUnits="userSpaceOnUse">
<stop stop-color="#E6E6E6"/>
<stop offset="1" stop-color="#DDE2EA" stop-opacity="0"/>
</linearGradient>
<linearGradient id="paint12_linear_155_9" x1="1809.08" y1="-88.0364" x2="1979.11" y2="1308.06" gradientUnits="userSpaceOnUse">
<stop stop-color="#E6E6E6"/>
<stop offset="1" stop-color="#DDE2EA" stop-opacity="0"/>
</linearGradient>
<linearGradient id="paint13_linear_155_9" x1="1809.08" y1="-88.0364" x2="1979.11" y2="1308.06" gradientUnits="userSpaceOnUse">
<stop stop-color="#E6E6E6"/>
<stop offset="1" stop-color="#DDE2EA" stop-opacity="0"/>
</linearGradient>
<linearGradient id="paint14_linear_155_9" x1="1809.08" y1="-88.0364" x2="1979.11" y2="1308.06" gradientUnits="userSpaceOnUse">
<stop stop-color="#E6E6E6"/>
<stop offset="1" stop-color="#DDE2EA" stop-opacity="0"/>
</linearGradient>
<linearGradient id="paint15_linear_155_9" x1="1809.08" y1="-88.0364" x2="1979.11" y2="1308.06" gradientUnits="userSpaceOnUse">
<stop stop-color="#E6E6E6"/>
<stop offset="1" stop-color="#DDE2EA" stop-opacity="0"/>
</linearGradient>
<linearGradient id="paint16_linear_155_9" x1="1809.08" y1="-88.0364" x2="1979.11" y2="1308.06" gradientUnits="userSpaceOnUse">
<stop stop-color="#E6E6E6"/>
<stop offset="1" stop-color="#DDE2EA" stop-opacity="0"/>
</linearGradient>
<linearGradient id="paint17_linear_155_9" x1="1809.08" y1="-88.0364" x2="1979.11" y2="1308.06" gradientUnits="userSpaceOnUse">
<stop stop-color="#E6E6E6"/>
<stop offset="1" stop-color="#DDE2EA" stop-opacity="0"/>
</linearGradient>
<linearGradient id="paint18_linear_155_9" x1="1809.08" y1="-88.0364" x2="1979.11" y2="1308.06" gradientUnits="userSpaceOnUse">
<stop stop-color="#E6E6E6"/>
<stop offset="1" stop-color="#DDE2EA" stop-opacity="0"/>
</linearGradient>
<linearGradient id="paint19_linear_155_9" x1="1809.08" y1="-88.0364" x2="1979.11" y2="1308.06" gradientUnits="userSpaceOnUse">
<stop stop-color="#E6E6E6"/>
<stop offset="1" stop-color="#DDE2EA" stop-opacity="0"/>
</linearGradient>
<linearGradient id="paint20_linear_155_9" x1="1809.08" y1="-88.0364" x2="1979.11" y2="1308.06" gradientUnits="userSpaceOnUse">
<stop stop-color="#E6E6E6"/>
<stop offset="1" stop-color="#DDE2EA" stop-opacity="0"/>
</linearGradient>
<linearGradient id="paint21_linear_155_9" x1="1809.08" y1="-88.0364" x2="1979.11" y2="1308.06" gradientUnits="userSpaceOnUse">
<stop stop-color="#E6E6E6"/>
<stop offset="1" stop-color="#DDE2EA" stop-opacity="0"/>
</linearGradient>
<linearGradient id="paint22_linear_155_9" x1="1809.08" y1="-88.0364" x2="1979.11" y2="1308.06" gradientUnits="userSpaceOnUse">
<stop stop-color="#E6E6E6"/>
<stop offset="1" stop-color="#DDE2EA" stop-opacity="0"/>
</linearGradient>
<linearGradient id="paint23_linear_155_9" x1="1809.08" y1="-88.0364" x2="1979.11" y2="1308.06" gradientUnits="userSpaceOnUse">
<stop stop-color="#E6E6E6"/>
<stop offset="1" stop-color="#DDE2EA" stop-opacity="0"/>
</linearGradient>
</defs>
</svg>
