<?xml version="1.0" encoding="utf-8"?>
<!-- Generator: Adobe Illustrator 21.0.0, SVG Export Plug-In . SVG Version: 6.00 Build 0)  -->
<svg version="1.1" id="Layer_1" xmlns="http://www.w3.org/2000/svg" xmlns:xlink="http://www.w3.org/1999/xlink" x="0px" y="0px"
	 viewBox="0 0 500 500" style="enable-background:new 0 0 500 500;" xml:space="preserve">
<style type="text/css">
	.st0{fill:#FFFFFF;}
	.st1{fill:#1C1C1C;}
</style>
<g id="logo-creative-tim-white-copy" transform="translate(73.038490, 108.000000)">
	<path id="Rectangle" class="st0" d="M177-79.5L177-79.5c122.3,0,221.5,99.2,221.5,221.5l0,0c0,122.3-99.2,221.5-221.5,221.5l0,0
		C54.6,363.5-44.5,264.3-44.5,142l0,0C-44.5,19.7,54.6-79.5,177-79.5z"/>
	<g id="icon" transform="translate(13.000000, 15.000000)">
		<g id="Group_1_">
			<path id="Shape_3_" class="st1" d="M271.5,33.3H64.9c-6.5,0-11.7,5.3-11.7,11.7v98.4c0,6.5,5.3,11.7,11.7,11.7h42.4v96.5
				c0,3.1,1.2,6.1,3.4,8.3c2.2,2.2,5.2,3.4,8.3,3.4h98.4c6.5,0,11.7-5.3,11.7-11.7v-96.4h42.4c3.1,0,6.1-1.2,8.3-3.4
				c2.2-2.2,3.4-5.2,3.4-8.3V45c0-3.1-1.2-6.1-3.4-8.3C277.6,34.5,274.6,33.3,271.5,33.3z M66.8,46.9h94.6v94.6H66.8V46.9z
				 M215.5,249.7h-94.6v-94.6h94.6V249.7z M269.6,141.5H175V46.9h94.6V141.5z"/>
			<path id="Path_8_" class="st1" d="M132.5,109.8c2.7,2.6,6.9,2.5,9.5-0.2c2.6-2.7,2.7-7,0.2-9.7l-21.9-22.2c-2.7-2.7-7-2.7-9.7,0
				L88.7,99.9c-1.8,1.7-2.6,4.4-1.9,6.8c0.6,2.5,2.5,4.4,4.9,5s5-0.1,6.7-2l17-17.3L132.5,109.8z"/>
			<path id="Path_9_" class="st1" d="M204,110.1l17.1-17.5l17.1,17.5c2.7,2.6,7,2.5,9.6-0.2c2.6-2.7,2.7-7,0.2-9.8l-22-22.4
				c-2.7-2.7-7-2.7-9.7,0l-22,22.4c-2.5,2.8-2.5,7.1,0.2,9.8C197.1,112.6,201.3,112.7,204,110.1L204,110.1z"/>
			<path id="Path_10_" class="st1" d="M152.6,186.7c-2.7-2.6-6.9-2.5-9.6,0.2s-2.7,7-0.1,9.7l21.9,22.3c1.3,1.3,3,2.1,4.9,2.1
				s3.6-0.7,4.9-2.1l21.9-22.3c1.7-1.8,2.4-4.3,1.8-6.8c-0.6-2.4-2.5-4.3-4.9-5c-2.4-0.6-4.9,0-6.6,1.8l-17.1,17.4L152.6,186.7z"/>
		</g>
	</g>
</g>
</svg>
